<svg width="175" height="41" viewBox="0 0 175 41" fill="none" xmlns="http://www.w3.org/2000/svg">
<path d="M0.00263683 11.38C0.00263683 8.30333 1.0643 5.87666 3.18764 4.1C5.31097 2.28 8.51764 1.37 12.8076 1.37H25.5476V6.18H12.7426C10.316 6.18 8.49597 6.65666 7.28264 7.61C6.0693 8.52 5.46264 9.73333 5.46264 11.25C5.46264 12.29 5.72264 13.1783 6.24264 13.915C6.80597 14.6517 7.7593 15.3233 9.10264 15.93C10.446 16.5367 12.331 17.165 14.7576 17.815C19.6976 19.0717 23.2076 20.6317 25.2876 22.495C27.3676 24.3583 28.4076 26.7417 28.4076 29.645C28.4076 32.375 27.671 34.4983 26.1976 36.015H31.3976V40.825H0.132637V36.015H12.9376C16.3176 36.015 18.8093 35.4517 20.4126 34.325C22.016 33.1983 22.8176 31.725 22.8176 29.905C22.8176 28.6483 22.471 27.6083 21.7776 26.785C21.0843 25.9183 19.9576 25.16 18.3976 24.51C16.881 23.8167 14.736 23.1233 11.9626 22.43C7.8893 21.4333 4.87764 20.1117 2.92764 18.465C0.977637 16.775 0.00263683 14.4133 0.00263683 11.38ZM31.29 40.825V36.015L31.81 35.95C32.8933 35.82 33.6733 35.43 34.15 34.78C34.6266 34.13 34.865 33.1767 34.865 31.92V13.2H40.325V15.865C42.3183 13.6117 45.135 12.485 48.775 12.485C52.3716 12.485 55.2316 13.5683 57.355 15.735C59.4783 17.9017 60.54 20.8267 60.54 24.51V31.92C60.54 33.1767 60.7783 34.13 61.255 34.78C61.7316 35.43 62.5116 35.82 63.595 35.95L64.115 36.015V40.825H63.4C60.6266 40.825 58.5466 40.045 57.16 38.485C55.7733 36.8817 55.08 34.6933 55.08 31.92V24.9C55.08 22.56 54.3866 20.74 53 19.44C51.6566 18.0967 49.88 17.425 47.67 17.425C45.46 17.425 43.6833 18.1183 42.34 19.505C40.9966 20.8917 40.325 22.69 40.325 24.9V31.92C40.325 34.6933 39.6316 36.8817 38.245 38.485C36.8583 40.045 34.7783 40.825 32.005 40.825H31.29ZM63.0917 40.825V36.015H69.8517C67.5551 33.5883 66.4067 30.555 66.4067 26.915C66.4067 24.2283 67.0134 21.845 68.2267 19.765C69.4401 17.6417 71.1084 15.995 73.2317 14.825C75.3984 13.6117 77.8251 13.005 80.5117 13.005C82.3317 13.005 83.9567 13.2867 85.3867 13.85V18.79C83.8701 18.2267 82.2884 17.945 80.6417 17.945C77.9984 17.945 75.8751 18.7683 74.2717 20.415C72.6684 22.0617 71.8667 24.2283 71.8667 26.915C71.8667 29.6017 72.6684 31.79 74.2717 33.48C75.9184 35.17 78.0417 36.015 80.6417 36.015C83.2417 36.015 85.3217 35.1917 86.8817 33.545C88.4851 31.8983 89.2867 29.7317 89.2867 27.045V13.2H94.7467V30.62C94.7467 32.31 94.9851 33.5883 95.4617 34.455C95.9384 35.3217 96.7184 35.82 97.8017 35.95L98.3217 36.015V40.825H97.2817C95.5917 40.825 94.1401 40.4783 92.9267 39.785C91.7567 39.0483 90.9117 38.03 90.3917 36.73C89.5251 37.9 88.1817 38.875 86.3617 39.655C84.5417 40.435 82.6351 40.825 80.6417 40.825H63.0917ZM120.424 36.015V40.825H98.1943V36.015H106.579C105.669 34.845 105.214 33.0683 105.214 30.685V18.01H99.4943V13.2H105.214V3.58H110.674V13.2H118.864V18.01H110.674V30.165C110.674 34.065 112.061 36.015 114.834 36.015H120.424ZM145.307 36.015V40.825H117.682V36.015H124.572C122.188 33.545 120.997 30.3817 120.997 26.525C120.997 23.8383 121.603 21.455 122.817 19.375C124.073 17.295 125.807 15.6483 128.017 14.435C130.227 13.2217 132.74 12.5717 135.557 12.485H138.027H143.032V17.295H138.157H135.687C133.043 17.3817 130.833 18.2917 129.057 20.025C127.323 21.715 126.457 23.8817 126.457 26.525C126.457 29.2983 127.323 31.5733 129.057 33.35C130.79 35.1267 133 36.015 135.687 36.015H145.307ZM174.417 40.825H168.957V24.9C168.957 22.56 168.264 20.74 166.877 19.44C165.534 18.0967 163.757 17.425 161.547 17.425C159.337 17.425 157.56 18.1183 156.217 19.505C154.874 20.8917 154.202 22.69 154.202 24.9V31.92C154.202 34.6933 153.509 36.8817 152.122 38.485C150.735 40.045 148.655 40.825 145.882 40.825H145.167V36.015L145.687 35.95C146.77 35.82 147.55 35.43 148.027 34.78C148.504 34.13 148.742 33.1767 148.742 31.92V0.0699967H154.202V15.865C156.325 13.6117 159.142 12.485 162.652 12.485C166.205 12.485 169.044 13.59 171.167 15.8C173.334 17.9667 174.417 20.87 174.417 24.51V40.825Z" fill="#3B3D46"/>
</svg>
