<svg width="200" height="100" viewBox="0 0 200 100" fill="none" xmlns="http://www.w3.org/2000/svg">
<path d="M12.0026 36.38C12.0026 33.3033 13.0643 30.8767 15.1876 29.1C17.311 27.28 20.5176 26.37 24.8076 26.37H37.5476V31.18H24.7426C22.316 31.18 20.496 31.6567 19.2826 32.61C18.0693 33.52 17.4626 34.7333 17.4626 36.25C17.4626 37.29 17.7226 38.1783 18.2426 38.915C18.806 39.6517 19.7593 40.3233 21.1026 40.93C22.446 41.5367 24.331 42.165 26.7576 42.815C31.6976 44.0717 35.2076 45.6317 37.2876 47.495C39.3676 49.3583 40.4076 51.7417 40.4076 54.645C40.4076 57.375 39.671 59.4983 38.1976 61.015H43.3976V65.825H12.1326V61.015H24.9376C28.3176 61.015 30.8093 60.4517 32.4126 59.325C34.016 58.1983 34.8176 56.725 34.8176 54.905C34.8176 53.6483 34.471 52.6083 33.7776 51.785C33.0843 50.9183 31.9576 50.16 30.3976 49.51C28.881 48.8167 26.736 48.1233 23.9626 47.43C19.8893 46.4333 16.8776 45.1117 14.9276 43.465C12.9776 41.775 12.0026 39.4133 12.0026 36.38ZM43.29 65.825V61.015L43.81 60.95C44.8933 60.82 45.6733 60.43 46.15 59.78C46.6266 59.13 46.865 58.1767 46.865 56.92V38.2H52.325V40.865C54.3183 38.6117 57.135 37.485 60.775 37.485C64.3716 37.485 67.2316 38.5683 69.355 40.735C71.4783 42.9017 72.54 45.8267 72.54 49.51V56.92C72.54 58.1767 72.7783 59.13 73.255 59.78C73.7316 60.43 74.5116 60.82 75.595 60.95L76.115 61.015V65.825H75.4C72.6266 65.825 70.5466 65.045 69.16 63.485C67.7733 61.8817 67.08 59.6933 67.08 56.92V49.9C67.08 47.56 66.3866 45.74 65 44.44C63.6566 43.0967 61.88 42.425 59.67 42.425C57.46 42.425 55.6833 43.1183 54.34 44.505C52.9966 45.8917 52.325 47.69 52.325 49.9V56.92C52.325 59.6933 51.6316 61.8817 50.245 63.485C48.8583 65.045 46.7783 65.825 44.005 65.825H43.29ZM75.0917 65.825V61.015H81.8517C79.5551 58.5883 78.4067 55.555 78.4067 51.915C78.4067 49.2283 79.0134 46.845 80.2267 44.765C81.4401 42.6417 83.1084 40.995 85.2317 39.825C87.3984 38.6117 89.8251 38.005 92.5117 38.005C94.3317 38.005 95.9567 38.2867 97.3867 38.85V43.79C95.8701 43.2267 94.2884 42.945 92.6417 42.945C89.9984 42.945 87.8751 43.7683 86.2717 45.415C84.6684 47.0617 83.8667 49.2283 83.8667 51.915C83.8667 54.6017 84.6684 56.79 86.2717 58.48C87.9184 60.17 90.0417 61.015 92.6417 61.015C95.2417 61.015 97.3217 60.1917 98.8817 58.545C100.485 56.8983 101.287 54.7317 101.287 52.045V38.2H106.747V55.62C106.747 57.31 106.985 58.5883 107.462 59.455C107.938 60.3217 108.718 60.82 109.802 60.95L110.322 61.015V65.825H109.282C107.592 65.825 106.14 65.4783 104.927 64.785C103.757 64.0483 102.912 63.03 102.392 61.73C101.525 62.9 100.182 63.875 98.3617 64.655C96.5417 65.435 94.6351 65.825 92.6417 65.825H75.0917ZM132.424 61.015V65.825H110.194V61.015H118.579C117.669 59.845 117.214 58.0683 117.214 55.685V43.01H111.494V38.2H117.214V28.58H122.674V38.2H130.864V43.01H122.674V55.165C122.674 59.065 124.061 61.015 126.834 61.015H132.424ZM157.307 61.015V65.825H129.682V61.015H136.572C134.188 58.545 132.997 55.3817 132.997 51.525C132.997 48.8383 133.603 46.455 134.817 44.375C136.073 42.295 137.807 40.6483 140.017 39.435C142.227 38.2217 144.74 37.5717 147.557 37.485H150.027H155.032V42.295H150.157H147.687C145.043 42.3817 142.833 43.2917 141.057 45.025C139.323 46.715 138.457 48.8817 138.457 51.525C138.457 54.2983 139.323 56.5733 141.057 58.35C142.79 60.1267 145 61.015 147.687 61.015H157.307ZM186.417 65.825H180.957V49.9C180.957 47.56 180.264 45.74 178.877 44.44C177.534 43.0967 175.757 42.425 173.547 42.425C171.337 42.425 169.56 43.1183 168.217 44.505C166.874 45.8917 166.202 47.69 166.202 49.9V56.92C166.202 59.6933 165.509 61.8817 164.122 63.485C162.735 65.045 160.655 65.825 157.882 65.825H157.167V61.015L157.687 60.95C158.77 60.82 159.55 60.43 160.027 59.78C160.504 59.13 160.742 58.1767 160.742 56.92V25.07H166.202V40.865C168.325 38.6117 171.142 37.485 174.652 37.485C178.205 37.485 181.044 38.59 183.167 40.8C185.334 42.9667 186.417 45.87 186.417 49.51V65.825Z" fill="white"/>
</svg>
